<mxfile host="Electron" agent="Mozilla/5.0 (Windows NT 10.0; Win64; x64) AppleWebKit/537.36 (KHTML, like Gecko) draw.io/28.1.2 Chrome/138.0.7204.243 Electron/37.4.0 Safari/537.36" version="28.1.2">
  <diagram name="Сторінка-1" id="JyIUgrc-dv0IH3Csri_y">
    <mxGraphModel dx="1747" dy="1769" grid="1" gridSize="10" guides="1" tooltips="1" connect="1" arrows="1" fold="1" page="1" pageScale="1" pageWidth="827" pageHeight="1169" math="0" shadow="0">
      <root>
        <mxCell id="0" />
        <mxCell id="1" parent="0" />
        <mxCell id="ELaiO1ALVKBKSiPfwlGS-1" value="початок" style="strokeWidth=2;html=1;shape=mxgraph.flowchart.terminator;whiteSpace=wrap;" vertex="1" parent="1">
          <mxGeometry x="280" y="50" width="100" height="40" as="geometry" />
        </mxCell>
        <mxCell id="ELaiO1ALVKBKSiPfwlGS-3" value="х" style="shape=parallelogram;html=1;strokeWidth=2;perimeter=parallelogramPerimeter;whiteSpace=wrap;rounded=1;arcSize=12;size=0.23;" vertex="1" parent="1">
          <mxGeometry x="280" y="130" width="100" height="60" as="geometry" />
        </mxCell>
        <mxCell id="ELaiO1ALVKBKSiPfwlGS-5" value="&lt;span style=&quot;font-size: 9.5pt; font-family: &amp;quot;Cascadia Mono&amp;quot;; background: white;&quot;&gt;(x &amp;lt;= -2 * R)&amp;nbsp;&lt;/span&gt;" style="strokeWidth=2;html=1;shape=mxgraph.flowchart.decision;whiteSpace=wrap;" vertex="1" parent="1">
          <mxGeometry x="265" y="220" width="130" height="100" as="geometry" />
        </mxCell>
        <mxCell id="ELaiO1ALVKBKSiPfwlGS-9" value="+" style="text;html=1;align=center;verticalAlign=middle;whiteSpace=wrap;rounded=0;" vertex="1" parent="1">
          <mxGeometry x="395" y="240" width="60" height="30" as="geometry" />
        </mxCell>
        <mxCell id="ELaiO1ALVKBKSiPfwlGS-10" value="-" style="text;html=1;align=center;verticalAlign=middle;whiteSpace=wrap;rounded=0;" vertex="1" parent="1">
          <mxGeometry x="200" y="240" width="60" height="30" as="geometry" />
        </mxCell>
        <mxCell id="ELaiO1ALVKBKSiPfwlGS-11" value="&lt;span style=&quot;font-size: 9.5pt; font-family: &amp;quot;Cascadia Mono&amp;quot;; background: white;&quot;&gt;y = -R&lt;/span&gt;" style="rounded=0;whiteSpace=wrap;html=1;" vertex="1" parent="1">
          <mxGeometry x="414" y="360" width="120" height="60" as="geometry" />
        </mxCell>
        <mxCell id="ELaiO1ALVKBKSiPfwlGS-12" value="&lt;span style=&quot;font-size: 9.5pt; font-family: &amp;quot;Cascadia Mono&amp;quot;; background: white;&quot;&gt;(x &amp;gt; -2 * R&lt;br/&gt;&amp;amp;&amp;amp; x &amp;lt;= -R)&lt;/span&gt;" style="rhombus;whiteSpace=wrap;html=1;" vertex="1" parent="1">
          <mxGeometry x="100" y="360" width="170" height="130" as="geometry" />
        </mxCell>
        <mxCell id="ELaiO1ALVKBKSiPfwlGS-15" value="+" style="text;html=1;align=center;verticalAlign=middle;whiteSpace=wrap;rounded=0;" vertex="1" parent="1">
          <mxGeometry x="260" y="400" width="60" height="30" as="geometry" />
        </mxCell>
        <mxCell id="ELaiO1ALVKBKSiPfwlGS-16" value="-" style="text;html=1;align=center;verticalAlign=middle;whiteSpace=wrap;rounded=0;" vertex="1" parent="1">
          <mxGeometry x="50" y="400" width="60" height="30" as="geometry" />
        </mxCell>
        <mxCell id="ELaiO1ALVKBKSiPfwlGS-17" value="&lt;span style=&quot;font-size: 9.5pt; font-family: &amp;quot;Cascadia Mono&amp;quot;; background: white;&quot;&gt;y = x + R&lt;/span&gt;" style="rounded=0;whiteSpace=wrap;html=1;" vertex="1" parent="1">
          <mxGeometry x="250" y="520" width="120" height="60" as="geometry" />
        </mxCell>
        <mxCell id="ELaiO1ALVKBKSiPfwlGS-18" value="&lt;span style=&quot;font-size: 9.5pt; font-family: &amp;quot;Cascadia Mono&amp;quot;; background: white;&quot;&gt;(x &amp;gt; -R &amp;amp;&amp;amp;&lt;br/&gt;x &amp;lt;= R)&amp;nbsp;&lt;/span&gt;" style="strokeWidth=2;html=1;shape=mxgraph.flowchart.decision;whiteSpace=wrap;" vertex="1" parent="1">
          <mxGeometry x="-30" y="520" width="150" height="100" as="geometry" />
        </mxCell>
        <mxCell id="ELaiO1ALVKBKSiPfwlGS-21" value="&lt;span style=&quot;font-size: 9.5pt; font-family: &amp;quot;Cascadia Mono&amp;quot;; background: white;&quot;&gt;y = -sqrt(R * R - x&lt;/span&gt;" style="rounded=0;whiteSpace=wrap;html=1;" vertex="1" parent="1">
          <mxGeometry x="60" y="640" width="180" height="60" as="geometry" />
        </mxCell>
        <mxCell id="ELaiO1ALVKBKSiPfwlGS-22" value="&lt;span style=&quot;font-size: 9.5pt; font-family: &amp;quot;Cascadia Mono&amp;quot;; background: white;&quot;&gt;(x &amp;gt; R &amp;amp;&amp;amp;&lt;br/&gt;x &amp;lt;= 2 * R)&amp;nbsp;&lt;/span&gt;" style="strokeWidth=2;html=1;shape=mxgraph.flowchart.decision;whiteSpace=wrap;" vertex="1" parent="1">
          <mxGeometry x="-210" y="640" width="180" height="110" as="geometry" />
        </mxCell>
        <mxCell id="ELaiO1ALVKBKSiPfwlGS-25" value="&lt;span style=&quot;font-size: 9.5pt; font-family: &amp;quot;Cascadia Mono&amp;quot;; background: white;&quot;&gt;y = (2.0 / R) * (x -&lt;br/&gt;R)&lt;/span&gt;" style="rounded=0;whiteSpace=wrap;html=1;" vertex="1" parent="1">
          <mxGeometry x="-50" y="790" width="120" height="60" as="geometry" />
        </mxCell>
        <mxCell id="ELaiO1ALVKBKSiPfwlGS-27" value="&lt;span style=&quot;font-size: 9.5pt; font-family: &amp;quot;Cascadia Mono&amp;quot;; background: white;&quot;&gt;y = 2&lt;/span&gt;" style="rounded=0;whiteSpace=wrap;html=1;" vertex="1" parent="1">
          <mxGeometry x="-320" y="780" width="120" height="60" as="geometry" />
        </mxCell>
        <mxCell id="ELaiO1ALVKBKSiPfwlGS-28" value="" style="endArrow=none;html=1;rounded=0;exitX=0.5;exitY=1;exitDx=0;exitDy=0;entryX=0.5;entryY=1;entryDx=0;entryDy=0;" edge="1" parent="1" source="ELaiO1ALVKBKSiPfwlGS-27" target="ELaiO1ALVKBKSiPfwlGS-25">
          <mxGeometry width="50" height="50" relative="1" as="geometry">
            <mxPoint x="-90" y="750" as="sourcePoint" />
            <mxPoint x="-40" y="700" as="targetPoint" />
            <Array as="points">
              <mxPoint x="-260" y="900" />
              <mxPoint x="10" y="900" />
            </Array>
          </mxGeometry>
        </mxCell>
        <mxCell id="ELaiO1ALVKBKSiPfwlGS-29" value="" style="endArrow=none;html=1;rounded=0;entryX=0.5;entryY=1;entryDx=0;entryDy=0;" edge="1" parent="1" target="ELaiO1ALVKBKSiPfwlGS-17">
          <mxGeometry width="50" height="50" relative="1" as="geometry">
            <mxPoint x="310" y="1000" as="sourcePoint" />
            <mxPoint x="80" y="640" as="targetPoint" />
          </mxGeometry>
        </mxCell>
        <mxCell id="ELaiO1ALVKBKSiPfwlGS-30" value="" style="endArrow=none;html=1;rounded=0;entryX=0.5;entryY=1;entryDx=0;entryDy=0;" edge="1" parent="1" target="ELaiO1ALVKBKSiPfwlGS-21">
          <mxGeometry width="50" height="50" relative="1" as="geometry">
            <mxPoint x="150" y="1000" as="sourcePoint" />
            <mxPoint x="80" y="640" as="targetPoint" />
          </mxGeometry>
        </mxCell>
        <mxCell id="ELaiO1ALVKBKSiPfwlGS-31" value="" style="endArrow=none;html=1;rounded=0;" edge="1" parent="1">
          <mxGeometry width="50" height="50" relative="1" as="geometry">
            <mxPoint x="20" y="1000" as="sourcePoint" />
            <mxPoint x="310" y="1000" as="targetPoint" />
          </mxGeometry>
        </mxCell>
        <mxCell id="ELaiO1ALVKBKSiPfwlGS-32" value="" style="endArrow=none;html=1;rounded=0;entryX=0.5;entryY=1;entryDx=0;entryDy=0;" edge="1" parent="1" target="ELaiO1ALVKBKSiPfwlGS-11">
          <mxGeometry width="50" height="50" relative="1" as="geometry">
            <mxPoint x="470" y="1080" as="sourcePoint" />
            <mxPoint x="280" y="780" as="targetPoint" />
          </mxGeometry>
        </mxCell>
        <mxCell id="ELaiO1ALVKBKSiPfwlGS-33" value="" style="endArrow=none;html=1;rounded=0;" edge="1" parent="1">
          <mxGeometry width="50" height="50" relative="1" as="geometry">
            <mxPoint x="20" y="1000" as="sourcePoint" />
            <mxPoint x="-130" y="900" as="targetPoint" />
            <Array as="points">
              <mxPoint x="-130" y="1000" />
            </Array>
          </mxGeometry>
        </mxCell>
        <mxCell id="ELaiO1ALVKBKSiPfwlGS-34" value="" style="endArrow=none;html=1;rounded=0;" edge="1" parent="1">
          <mxGeometry width="50" height="50" relative="1" as="geometry">
            <mxPoint x="50" y="1000" as="sourcePoint" />
            <mxPoint x="470" y="1080" as="targetPoint" />
            <Array as="points">
              <mxPoint x="50" y="1080" />
            </Array>
          </mxGeometry>
        </mxCell>
        <mxCell id="ELaiO1ALVKBKSiPfwlGS-35" value="" style="endArrow=none;html=1;rounded=0;" edge="1" parent="1" target="ELaiO1ALVKBKSiPfwlGS-36">
          <mxGeometry width="50" height="50" relative="1" as="geometry">
            <mxPoint x="290" y="1080" as="sourcePoint" />
            <mxPoint x="290" y="1080" as="targetPoint" />
          </mxGeometry>
        </mxCell>
        <mxCell id="ELaiO1ALVKBKSiPfwlGS-36" value="у" style="strokeWidth=2;html=1;shape=mxgraph.flowchart.document2;whiteSpace=wrap;size=0.25;" vertex="1" parent="1">
          <mxGeometry x="240" y="1150" width="100" height="60" as="geometry" />
        </mxCell>
        <mxCell id="ELaiO1ALVKBKSiPfwlGS-37" value="" style="endArrow=none;html=1;rounded=0;entryX=0.506;entryY=0.88;entryDx=0;entryDy=0;entryPerimeter=0;exitX=0.5;exitY=0;exitDx=0;exitDy=0;exitPerimeter=0;" edge="1" parent="1" source="ELaiO1ALVKBKSiPfwlGS-38" target="ELaiO1ALVKBKSiPfwlGS-36">
          <mxGeometry width="50" height="50" relative="1" as="geometry">
            <mxPoint x="291" y="1280" as="sourcePoint" />
            <mxPoint x="210" y="880" as="targetPoint" />
          </mxGeometry>
        </mxCell>
        <mxCell id="ELaiO1ALVKBKSiPfwlGS-38" value="кінець" style="strokeWidth=2;html=1;shape=mxgraph.flowchart.terminator;whiteSpace=wrap;" vertex="1" parent="1">
          <mxGeometry x="200" y="1250" width="180" height="60" as="geometry" />
        </mxCell>
        <mxCell id="ELaiO1ALVKBKSiPfwlGS-39" value="" style="endArrow=none;html=1;rounded=0;entryX=0.5;entryY=1;entryDx=0;entryDy=0;entryPerimeter=0;exitX=0.5;exitY=0;exitDx=0;exitDy=0;" edge="1" parent="1" source="ELaiO1ALVKBKSiPfwlGS-3" target="ELaiO1ALVKBKSiPfwlGS-1">
          <mxGeometry width="50" height="50" relative="1" as="geometry">
            <mxPoint x="240" y="430" as="sourcePoint" />
            <mxPoint x="290" y="380" as="targetPoint" />
          </mxGeometry>
        </mxCell>
        <mxCell id="ELaiO1ALVKBKSiPfwlGS-40" value="" style="endArrow=none;html=1;rounded=0;entryX=0.5;entryY=1;entryDx=0;entryDy=0;" edge="1" parent="1" source="ELaiO1ALVKBKSiPfwlGS-5" target="ELaiO1ALVKBKSiPfwlGS-3">
          <mxGeometry width="50" height="50" relative="1" as="geometry">
            <mxPoint x="240" y="430" as="sourcePoint" />
            <mxPoint x="290" y="380" as="targetPoint" />
          </mxGeometry>
        </mxCell>
        <mxCell id="ELaiO1ALVKBKSiPfwlGS-41" value="" style="endArrow=none;html=1;rounded=0;entryX=1;entryY=0.5;entryDx=0;entryDy=0;entryPerimeter=0;exitX=0.5;exitY=0;exitDx=0;exitDy=0;" edge="1" parent="1" source="ELaiO1ALVKBKSiPfwlGS-11" target="ELaiO1ALVKBKSiPfwlGS-5">
          <mxGeometry width="50" height="50" relative="1" as="geometry">
            <mxPoint x="240" y="430" as="sourcePoint" />
            <mxPoint x="290" y="380" as="targetPoint" />
            <Array as="points">
              <mxPoint x="474" y="270" />
            </Array>
          </mxGeometry>
        </mxCell>
        <mxCell id="ELaiO1ALVKBKSiPfwlGS-42" value="" style="endArrow=none;html=1;rounded=0;entryX=0;entryY=0.5;entryDx=0;entryDy=0;entryPerimeter=0;exitX=0.5;exitY=0;exitDx=0;exitDy=0;" edge="1" parent="1" source="ELaiO1ALVKBKSiPfwlGS-12" target="ELaiO1ALVKBKSiPfwlGS-5">
          <mxGeometry width="50" height="50" relative="1" as="geometry">
            <mxPoint x="240" y="430" as="sourcePoint" />
            <mxPoint x="290" y="380" as="targetPoint" />
            <Array as="points">
              <mxPoint x="185" y="270" />
            </Array>
          </mxGeometry>
        </mxCell>
        <mxCell id="ELaiO1ALVKBKSiPfwlGS-44" value="" style="endArrow=none;html=1;rounded=0;entryX=1;entryY=0.5;entryDx=0;entryDy=0;exitX=0.5;exitY=0;exitDx=0;exitDy=0;" edge="1" parent="1" source="ELaiO1ALVKBKSiPfwlGS-17" target="ELaiO1ALVKBKSiPfwlGS-12">
          <mxGeometry width="50" height="50" relative="1" as="geometry">
            <mxPoint x="60" y="940" as="sourcePoint" />
            <mxPoint x="110" y="890" as="targetPoint" />
            <Array as="points">
              <mxPoint x="310" y="425" />
            </Array>
          </mxGeometry>
        </mxCell>
        <mxCell id="ELaiO1ALVKBKSiPfwlGS-45" value="" style="endArrow=none;html=1;rounded=0;entryX=0;entryY=0.5;entryDx=0;entryDy=0;exitX=0.5;exitY=0;exitDx=0;exitDy=0;exitPerimeter=0;" edge="1" parent="1" source="ELaiO1ALVKBKSiPfwlGS-18" target="ELaiO1ALVKBKSiPfwlGS-12">
          <mxGeometry width="50" height="50" relative="1" as="geometry">
            <mxPoint x="160" y="710" as="sourcePoint" />
            <mxPoint x="210" y="660" as="targetPoint" />
            <Array as="points">
              <mxPoint x="45" y="425" />
            </Array>
          </mxGeometry>
        </mxCell>
        <mxCell id="ELaiO1ALVKBKSiPfwlGS-46" value="+" style="text;html=1;align=center;verticalAlign=middle;whiteSpace=wrap;rounded=0;" vertex="1" parent="1">
          <mxGeometry x="110" y="540" width="60" height="30" as="geometry" />
        </mxCell>
        <mxCell id="ELaiO1ALVKBKSiPfwlGS-47" value="-" style="text;html=1;align=center;verticalAlign=middle;whiteSpace=wrap;rounded=0;" vertex="1" parent="1">
          <mxGeometry x="-90" y="540" width="60" height="30" as="geometry" />
        </mxCell>
        <mxCell id="ELaiO1ALVKBKSiPfwlGS-48" value="-" style="text;html=1;align=center;verticalAlign=middle;whiteSpace=wrap;rounded=0;" vertex="1" parent="1">
          <mxGeometry x="-260" y="670" width="60" height="30" as="geometry" />
        </mxCell>
        <mxCell id="ELaiO1ALVKBKSiPfwlGS-49" value="+" style="text;html=1;align=center;verticalAlign=middle;whiteSpace=wrap;rounded=0;" vertex="1" parent="1">
          <mxGeometry x="-50" y="670" width="60" height="30" as="geometry" />
        </mxCell>
        <mxCell id="ELaiO1ALVKBKSiPfwlGS-50" value="" style="endArrow=none;html=1;rounded=0;entryX=0.25;entryY=1;entryDx=0;entryDy=0;exitX=0.5;exitY=0;exitDx=0;exitDy=0;" edge="1" parent="1" source="ELaiO1ALVKBKSiPfwlGS-21" target="ELaiO1ALVKBKSiPfwlGS-46">
          <mxGeometry width="50" height="50" relative="1" as="geometry">
            <mxPoint x="30" y="760" as="sourcePoint" />
            <mxPoint x="80" y="710" as="targetPoint" />
            <Array as="points">
              <mxPoint x="150" y="570" />
            </Array>
          </mxGeometry>
        </mxCell>
        <mxCell id="ELaiO1ALVKBKSiPfwlGS-51" value="" style="endArrow=none;html=1;rounded=0;entryX=0;entryY=0.5;entryDx=0;entryDy=0;entryPerimeter=0;exitX=0.5;exitY=0;exitDx=0;exitDy=0;exitPerimeter=0;" edge="1" parent="1" source="ELaiO1ALVKBKSiPfwlGS-22" target="ELaiO1ALVKBKSiPfwlGS-18">
          <mxGeometry width="50" height="50" relative="1" as="geometry">
            <mxPoint x="30" y="760" as="sourcePoint" />
            <mxPoint x="80" y="710" as="targetPoint" />
            <Array as="points">
              <mxPoint x="-120" y="570" />
            </Array>
          </mxGeometry>
        </mxCell>
        <mxCell id="ELaiO1ALVKBKSiPfwlGS-52" value="" style="endArrow=none;html=1;rounded=0;entryX=0;entryY=0.5;entryDx=0;entryDy=0;entryPerimeter=0;exitX=0.5;exitY=0;exitDx=0;exitDy=0;" edge="1" parent="1" source="ELaiO1ALVKBKSiPfwlGS-27" target="ELaiO1ALVKBKSiPfwlGS-22">
          <mxGeometry width="50" height="50" relative="1" as="geometry">
            <mxPoint x="-100" y="840" as="sourcePoint" />
            <mxPoint x="-50" y="790" as="targetPoint" />
            <Array as="points">
              <mxPoint x="-260" y="695" />
            </Array>
          </mxGeometry>
        </mxCell>
        <mxCell id="ELaiO1ALVKBKSiPfwlGS-53" value="" style="endArrow=none;html=1;rounded=0;entryX=0.25;entryY=1;entryDx=0;entryDy=0;exitX=0.5;exitY=0;exitDx=0;exitDy=0;" edge="1" parent="1" source="ELaiO1ALVKBKSiPfwlGS-25" target="ELaiO1ALVKBKSiPfwlGS-49">
          <mxGeometry width="50" height="50" relative="1" as="geometry">
            <mxPoint x="-10" y="810" as="sourcePoint" />
            <mxPoint x="40" y="760" as="targetPoint" />
            <Array as="points">
              <mxPoint x="10" y="700" />
            </Array>
          </mxGeometry>
        </mxCell>
      </root>
    </mxGraphModel>
  </diagram>
</mxfile>
